<svg xmlns="http://www.w3.org/2000/svg" viewBox="0 0 24 24" fill="#E1306C">
  <path d="M12 2.163c3.204 0 3.584.012 4.85.07 1.366.062 2.633.343 3.608 1.318.975.975 1.256 2.242 1.318 3.608.058 1.266.069 1.646.069 4.841s-.012 3.575-.07 4.841c-.062 1.366-.343 2.633-1.318 3.608-.975.975-2.242 1.256-3.608 1.318-1.266.058-1.646.069-4.85.069s-3.584-.012-4.85-.07c-1.366-.062-2.633-.343-3.608-1.318-.975-.975-1.256-2.242-1.318-3.608C2.175 15.575 2.163 15.195 2.163 12s.012-3.575.07-4.841c.062-1.366.343-2.633 1.318-3.608.975-.975 2.242-1.256 3.608-1.318C8.416 2.175 8.796 2.163 12 2.163zM12 5.838A6.162 6.162 0 1 0 18.162 12 6.165 6.165 0 0 0 12 5.838zm0 10.164A4.002 4.002 0 1 1 16.002 12 4.004 4.004 0 0 1 12 16.002zm6.406-11.845a1.44 1.44 0 1 1-1.44 1.44 1.44 1.44 0 0 1 1.44-1.44z"></path>
</svg>
